# xmcd
#
# Track frame offsets: 
#        150
#        15772
#        29738
#        44699
#        61503
#        81295
#        99937
#        118020
#        135480
#        157586
#        174898
#
# Disc length: 2641 seconds
#
# Revision: 0
# Processed by: cddbd v1.5.2PL0 Copyright (c) Steve Scherf et al.
# Submitted via: ExactAudioCopy v1.2
#
DISCID=750a4f0b
DTITLE=Flatland Cavalry - Homeland Insecurity
DYEAR=2019
DGENRE=Country
TTITLE0=Come Back Down
TTITLE1=Honeywine
TTITLE2=Old School
TTITLE3=Other Side of Lonesome
TTITLE4=Back to Me
TTITLE5=Living by Moonlight
TTITLE6=Ashes
TTITLE7=Lonely Then
TTITLE8=Pretty Women
TTITLE9=Sleeping Alone
TTITLE10=Years From Now
EXTD=
EXTT0=
EXTT1=
EXTT2=
EXTT3=
EXTT4=
EXTT5=
EXTT6=
EXTT7=
EXTT8=
EXTT9=
EXTT10=
PLAYORDER=
